<svg width="25" height="31" viewBox="0 0 25 31" fill="none" xmlns="http://www.w3.org/2000/svg">
<g clip-path="url(#clip0)">
<path d="M13.7938 2.69954C15.8087 0.0150405 18.6099 0.00195312 18.6099 0.00195312C18.6099 0.00195312 19.0266 2.52584 17.0249 4.95715C14.8876 7.55324 12.4582 7.12844 12.4582 7.12844C12.4582 7.12844 12.002 5.0867 13.7938 2.69954ZM12.7145 8.89641C13.751 8.89641 15.6749 7.45608 18.179 7.45608C22.4893 7.45608 24.185 10.5565 24.185 10.5565C24.185 10.5565 20.8686 12.2705 20.8686 16.4296C20.8686 21.1213 25 22.7383 25 22.7383C25 22.7383 22.112 30.9552 18.2111 30.9552C16.4194 30.9552 15.0264 29.7347 13.1387 29.7347C11.2148 29.7347 9.30575 31.0007 8.06234 31.0007C4.50021 31.0008 0 23.2062 0 16.9406C0 10.7762 3.80913 7.54245 7.38194 7.54245C9.70459 7.54245 11.507 8.89641 12.7145 8.89641Z" fill="white"/>
</g>
<defs>
<clipPath id="clip0">
<rect width="25" height="31" fill="white"/>
</clipPath>
</defs>
</svg>
