<svg width="54" height="46" viewBox="0 0 54 46" fill="none" xmlns="http://www.w3.org/2000/svg">
<path d="M46.2857 0H7.71429C3.4538 0 0 3.43248 0 7.66667V38.3333C0 42.5675 3.4538 46 7.71429 46H46.2857C50.5462 46 54 42.5675 54 38.3333V7.66667C54 3.43248 50.5462 0 46.2857 0Z" fill="url(#paint0_linear)"/>
<path d="M20.4377 16.2324V30.6662H23.8937C23.8937 24.5124 23.8732 23.0404 23.8115 21.548C24.4697 22.836 25.4983 24.7986 28.9132 30.6662H32.6366V16.2324H29.1806C29.1806 22.4066 29.2012 23.8991 29.3246 25.4938C28.6663 24.1035 27.9669 22.836 24.1612 16.2324H20.4377Z" fill="white"/>
<defs>
<linearGradient id="paint0_linear" x1="-72.6428" y1="61.3334" x2="76.3686" y2="19.9713" gradientUnits="userSpaceOnUse">
<stop stop-color="#105F53"/>
<stop offset="1" stop-color="#31C8B1"/>
</linearGradient>
</defs>
</svg>
