<svg width="27" height="31" viewBox="0 0 27 31" fill="none" xmlns="http://www.w3.org/2000/svg">
<path d="M19.979 10.2148L2.52069 0.34427C1.65563 -0.146525 0.885945 -0.0942133 0.40918 0.384567L15.0446 15.1364L17.8204 13.8167C19.2628 13.0029 21.4197 11.0321 19.979 10.2148Z" fill="white"/>
<path d="M14.9913 15.1367L18.5574 17.3695C19.9905 18.1795 21.2552 18.9702 19.8288 19.9976L2.5925 29.791C1.66679 30.3113 0.873571 30.2281 0.40918 29.6507L5.01326 24.1407L14.9913 15.1367Z" fill="white"/>
<path d="M25.9212 13.5699L19.9068 10.2266L15 15.0726L19.8569 19.9084L25.9177 16.4946C26.0979 16.3943 26.2557 16.2859 26.3908 16.1716C26.5259 16.0572 26.6387 15.9368 26.7289 15.8123C26.7515 15.7813 26.7727 15.7498 26.7924 15.7184C27.2462 14.992 26.9561 14.1492 25.9212 13.5699Z" fill="white"/>
<path d="M0.501902 0.408203C0.186473 0.725902 -0.000736531 1.23116 2.17801e-06 1.89246L0.0286008 28.3275C0.0292339 28.915 0.178136 29.4063 0.433413 29.7264L15 15.1054L0.501902 0.408203Z" fill="white"/>
</svg>
